# xmcd
#
# Track frame offsets:
# 150
# 23961
# 54087
# 72397
# 99549
# 120065
# 139625
# 205821
# 246214
# 291879
# 309826
#
# Disc length: 4594 seconds
#
# Revision: 1
# Processed by: cddbd v1.5.2PL0 Copyright (c) Steve Scherf et al.
# Submitted via: CedeCatalogueitor 2.6.0.6 http://personales.ya.com/cdcatalogueitor
#
DISCID=8f11f00b
DTITLE=The Marshall Tucker Band - Live From Spartanburg, South Carolina
DYEAR=2013
DGENRE=
TTITLE0=Heard It In A Love Song
TTITLE1=This Ol' Cowboy
TTITLE2=Long Hard Ride
TTITLE3=Desert Skies
TTITLE4=Searchin' For A Rainbow
TTITLE5=Fire On The Mountain
TTITLE6=24 Hours At A Time
TTITLE7=In My Own Way
TTITLE8=Ramblin'
TTITLE9=Askin' Too Much Of You
TTITLE10=Can't You See
EXTD=
EXTT0=
EXTT1=
EXTT2=
EXTT3=
EXTT4=
EXTT5=
EXTT6=
EXTT7=
EXTT8=
EXTT9=
EXTT10=
PLAYORDER=
